<?xml version="1.0" encoding="UTF-8"?>
<svg xmlns="http://www.w3.org/2000/svg" viewBox="0 0 544 280" role="img" aria-label="إدهام">
  <title>إدهام</title>
  <g fill="#0B1E3F">
    <path transform="translate(56.00 200.00) scale(0.2000 -0.2000)" d="M40 -66Q40 184 260 184H479Q475 243 442.5 276.0Q410 309 361 309Q311 309 285.5 284.5Q260 260 251 222L142 257Q151 315 173.5 354.0Q196 393 226.5 416.0Q257 439 291.5 449.0Q326 459 359 459Q461 459 520.5 381.5Q580 304 580 161V34H260Q230 34 210.5 29.5Q191 25 180.0 14.0Q169 3 164.5 -16.5Q160 -36 160 -66V-304H40Z"/>
  <path transform="translate(179.00 200.00) scale(0.2000 -0.2000)" d="M259 0Q158 0 109.0 48.0Q60 96 60 204V740H180V224Q180 179 198.0 164.5Q216 150 260 150H290V30L260 0Z"/>
  <path transform="translate(237.00 200.00) scale(0.2000 -0.2000)" d="M-30 120 0 150H108L110 155Q53 215 53 292Q53 334 66.0 371.0Q79 408 102.0 436.5Q125 465 156.5 483.0Q188 501 225 504L255 566L414 490Q531 434 586.0 352.5Q641 271 641 156V136L551 0H442Q388 0 337.0 12.5Q286 25 240 54Q194 25 143.0 12.5Q92 0 38 0H-30ZM240 163Q287 190 311.0 219.5Q335 249 335 287Q335 332 311.0 358.5Q287 385 246 385H234Q193 385 169.0 358.5Q145 332 145 287Q145 249 169.0 219.5Q193 190 240 163ZM424 332Q427 312 427 292Q427 215 370 155L372 150H541V156Q541 216 513.5 259.5Q486 303 426 335Z"/>
  <path transform="translate(370.20 200.00) scale(0.2000 -0.2000)" d="M174 0Q104 0 67.0 35.0Q30 70 30 147V214H145V150H298Q365 150 365 202Q365 214 359.0 227.5Q353 241 340.0 258.0Q327 275 306.5 296.0Q286 317 256 345L157 437L259 547L340 467Q377 430 403.0 398.0Q429 366 445.0 335.0Q461 304 468.0 271.5Q475 239 475 202Q475 106 426.0 53.0Q377 0 288 0Z"/>
  <path transform="translate(472.20 200.00) scale(0.2000 -0.2000)" d="M60 740H180V0H60ZM13 -185H55L56 -180Q36 -158 36 -127Q36 -85 66.5 -57.5Q97 -30 145 -30Q174 -30 201.0 -42.0Q228 -54 248 -75L200 -142Q176 -118 145 -118Q128 -118 117.5 -126.0Q107 -134 107 -145Q107 -178 176 -178H250V-266H13Z"/>
  </g>
  <circle cx="34.00" cy="194.00" r="10" fill="#C66B3D"/>
</svg>

